<svg id="Layer_1" data-name="Layer 1" xmlns="http://www.w3.org/2000/svg" viewBox="0 0 50 59.3"><defs><style>.cls-1{fill:#bf392c;}.cls-2{fill:#e2574c;}.cls-3{fill:#ed9d5d;}.cls-4{fill:#d58d54;}</style></defs><title>bronze</title><g id="medal_bronze" data-name="medal bronze"><path class="cls-1" d="M35.6,21,50,0H33.3L25,12.2l4.6,6.7A20.4,20.4,0,0,1,35.6,21Z"/><path class="cls-2" d="M25.9,18.5a22.1,22.1,0,0,1,3.7.4L25,12.2,16.7,0H0L14.9,21.8A20,20,0,0,1,25.9,18.5Z"/><path class="cls-3" d="M35.6,21a20.4,20.4,0,0,0-6-2.1,22.2,22.2,0,0,0-3.7-.3A20.4,20.4,0,0,0,5.5,38.9,20.4,20.4,0,1,0,35.6,21ZM25.9,53.8A14.9,14.9,0,1,1,40.7,38.9,14.8,14.8,0,0,1,25.9,53.8Z"/><path class="cls-3" d="M25.9,27.8A11.2,11.2,0,1,0,37,38.9,11.1,11.1,0,0,0,25.9,27.8Z"/><path class="cls-4" d="M25.9,24.1A14.9,14.9,0,1,0,40.7,38.9,14.8,14.8,0,0,0,25.9,24.1Zm0,26A11.2,11.2,0,1,1,37,39,11.1,11.1,0,0,1,25.9,50.1Z"/></g></svg>