<svg id="Layer_1" data-name="Layer 1" xmlns="http://www.w3.org/2000/svg" xmlns:xlink="http://www.w3.org/1999/xlink" viewBox="0 0 119 119"><defs><style>.cls-1{fill:none;}.cls-2{clip-path:url(#clip-path);}.cls-3{fill:#f0c47f;}.cls-4{fill:#675a52;}.cls-5{fill:#443932;}.cls-6{fill:#231f1d;}.cls-7{fill:#d1a69f;}.cls-8{fill:#af8277;}.cls-9{fill:#9d9d9d;}.cls-10{fill:#cfcece;}</style><clipPath id="clip-path" transform="translate(9.5 9.3)"><ellipse class="cls-1" cx="50" cy="50.2" rx="50" ry="50.2"/></clipPath></defs><title>female</title><g class="cls-2"><g id="Young_Woman_with_tress" data-name="Young Woman with tress"><rect class="cls-3" width="119" height="119.05"/><path class="cls-4" d="M70.6,91.1A19.7,19.7,0,0,1,67,84.8a.1.1,0,0,0-.1.1h-.1a24.7,24.7,0,0,0,2.7,6.2c1.3,2.4,1.2,7-.8,8.6a4.4,4.4,0,0,0,3.7-1.8C73,95.8,71.9,92.6,70.6,91.1Z" transform="translate(9.5 9.3)"/><path class="cls-4" d="M69.1,84.5a1.4,1.4,0,0,0,.2.6c-.1-.2-.1-.4-.2-.6Z" transform="translate(9.5 9.3)"/><path class="cls-5" d="M75.4,93.1c-.4-1.3-4.3-4.7-6.1-8a1.7,1.7,0,0,1-.2-.5,3.7,3.7,0,0,0-2.1.2,19.7,19.7,0,0,0,3.6,6.3c1.3,1.5,2.4,4.7,1.8,6.7a1.9,1.9,0,0,1-.5,1C74.3,98.5,75.9,95.1,75.4,93.1Z" transform="translate(9.5 9.3)"/><path class="cls-5" d="M68.6,81.4a6.1,6.1,0,0,1,.5-1.2,15.9,15.9,0,0,0,1.5-15.9c-.9-1.9-1.3-5.6-1.4-8a4.4,4.4,0,0,1-.6,1,9.4,9.4,0,0,1-1,1l.5,1.8-.8,1.4h.2v1.2l-.2.2h0l.3.7h.6l.2.2h.2v.8l-.2.2v.2h-.2v.2h-.8l-.5.9h.2v.8l-.2.2V68h-.2v.2H66v-.2h-.2v-.9l.2-.2v-.2H66l.2-.2h.6l.5-.9v-.2l-.2-.2v-.2h-.2v-.4l.2-.2v-.2h.2l-.3-.7h-.5l-.2-.2H66v-.2l-.2-.2v-.9h.1v-.2h.2l.2-.2h.6l.6-1.3-.3-1.3a.7.7,0,0,1-.6.2,34.7,34.7,0,0,1-3.4,7.5c.4,5.8,2.7,12,3,14.6v.8A3.4,3.4,0,0,0,68.6,81.4Z" transform="translate(9.5 9.3)"/><path class="cls-6" d="M67,84.9a3.7,3.7,0,0,1,2.1-.2h0c.6.2.2-3.5-.5-3.2h0a3.7,3.7,0,0,1-2.4.4h0c-.9-.2-.1,3.4.6,3.1H67Z" transform="translate(9.5 9.3)"/><path class="cls-7" d="M49.3,27.9V18.4l-1.2,9.8s-8.8-2.6-12.5,4.5c-2.1,4.1-4.7,9.8-3.8,25.9C35.4,70.2,43,76.2,49.3,76.2V27.9Z" transform="translate(9.5 9.3)"/><path class="cls-4" d="M35.6,32.7c3.7-7.1,12.5-4.5,12.5-4.5l1.2-9.8V17h0s-14.4.6-20.1,13.1S26.5,49.6,27.5,52s3.5,6,4.3,6.5h0C30.9,42.5,33.5,36.8,35.6,32.7Z" transform="translate(9.5 9.3)"/><path class="cls-5" d="M49.3,18.4l1.1,9.8s8.1-2.6,12.4,4.7c2.1,3.6,3.7,5.4,3.9,17v-.2s1.6-1.4,2.8-.9a1.7,1.7,0,0,1,.9,1.6A11.8,11.8,0,0,0,73,44.1c.2-2.6.3-7.3-3.6-14C62.4,18,49.3,17,49.3,17h0v1.4Z" transform="translate(9.5 9.3)"/><path class="cls-8" d="M67.2,58.7l-.2-1c-.3-.1-.5-.3-.4-.6a.9.9,0,0,1,.3-.5.6.6,0,0,1,.8.6.5.5,0,0,1-.2.4l.2.7,1-1a4.4,4.4,0,0,0,.6-1,26.8,26.8,0,0,0,1.1-3.5,9.5,9.5,0,0,0,.1-2.4,1.7,1.7,0,0,0-.9-1.6c-1.2-.5-2.8.9-2.8.9v.2c-.2-11.6-1.8-13.4-3.9-17-4.3-7.3-12.4-4.7-12.4-4.7l-1.1-9.8V76.2c4.6,0,10.1-3.3,14-9.8a30.4,30.4,0,0,0,3.3-7.5Z" transform="translate(9.5 9.3)"/><polygon class="cls-9" points="76.9 75.1 76.7 75.1 76.7 75.1 76.2 75.9 76.3 76 76.5 76 76.6 76.1 76.7 76.1 77.2 75.2 77.1 75.2 76.9 75.1"/><polygon class="cls-9" points="76.6 72.5 76.4 72.6 76.7 73.3 76.8 73.3 76.9 73.1 77.2 73.1 77.2 73.1 76.9 72.3 76.8 72.4 76.6 72.5"/><path class="cls-9" d="M67,57.7h-.1l.3,1,.3,1.3-.7,1.3h.4v.3h0l.8-1.6-.5-1.8-.2-.7C67.3,57.7,67.2,57.8,67,57.7Z" transform="translate(9.5 9.3)"/><polygon class="cls-10" points="76.5 75.7 76.2 75.7 76.2 75.9 76 75.8 75.8 76 75.6 76 75.4 76.1 75.2 76.1 75.2 76.4 75 76.5 75 76.7 74.9 77 75 77.2 75.1 77.4 75.2 77.5 75.3 77.7 75.6 77.8 75.7 77.9 76 77.9 76.2 78 76.4 77.8 76.6 77.8 76.7 77.6 76.9 77.5 76.9 77.2 77.1 77.1 77 76.8 77 76.6 76.9 76.4 76.8 76.2 76.7 76.1 76.6 76.1 76.5 75.7"/><polygon class="cls-10" points="76.9 73.1 76.8 73.3 76.7 73.4 76.6 73.4 76.5 73.6 76.3 73.8 76.4 74 76.3 74.2 76.4 74.4 76.4 74.7 76.6 74.9 76.7 75.1 76.7 75.1 76.9 75.1 77.1 75.2 77.2 75.2 77.3 75.2 77.5 75.3 77.7 75.1 77.9 75.1 78 74.9 78.2 74.8 78.2 74.6 78.4 74.4 78.3 74.2 78.3 74 78.2 73.8 78.1 73.6 77.9 73.5 77.8 73.3 77.6 73.3 77.4 73.1 77.2 73.1 77.2 73.1 76.9 73.1"/><polygon class="cls-10" points="76.7 70.6 76.5 70.6 76.4 70.5 76.2 70.5 76 70.6 75.8 70.6 75.7 70.7 75.4 70.8 75.4 71 75.2 71.2 75.2 71.4 75.2 71.6 75.2 71.8 75.3 72.1 75.4 72.2 75.6 72.4 75.8 72.5 76 72.6 76.2 72.6 76.4 72.6 76.4 72.6 76.6 72.5 76.8 72.5 76.9 72.4 76.9 72.3 77.1 72.1 77.2 71.9 77.3 71.7 77.2 71.5 77.2 71.3 77.1 71.1 77 70.9 76.8 70.8 76.8 70.8 76.7 70.6"/><path class="cls-10" d="M67.4,57.6c.2-.1.2-.2.2-.4a.5.5,0,0,0-.5-.6.6.6,0,0,0-.6.5.7.7,0,0,0,.4.6H67C67.2,57.8,67.3,57.7,67.4,57.6Z" transform="translate(9.5 9.3)"/></g></g></svg>