<svg id="Layer_1" data-name="Layer 1" xmlns="http://www.w3.org/2000/svg" viewBox="0 0 98.1 118.9"><defs><style>.cls-1{fill:#cfcece;}.cls-2{fill:#455672;}.cls-3{fill:#d58d54;}</style></defs><title>logo</title><polygon class="cls-1" points="0.7 49.2 32 7.6 49.7 26.5 68.1 0 98.1 49.2 0.7 49.2"/><polygon class="cls-2" points="49.7 26.5 38.7 49.2 60 49.2 49.7 26.5"/><path class="cls-2" d="M3.8,67h4V53.6h3.9V83.8H7.8V70.3h-4V83.8H0V53.6H3.8Z"/><path class="cls-2" d="M17.9,76l-.7,7.8H13.3L17,53.6h5.5l3.7,30.2h-4L21.4,76Zm1.8-18.5L18.2,72.8h2.9Z"/><path class="cls-2" d="M27.8,83.8V53.6h3.8v27h5.1v3.2Z"/><path class="cls-2" d="M47.7,56.9H42.2V67.2h5v3.3h-5V83.8H38.4V53.6h9.3Z"/><path class="cls-2" d="M55.9,53.6h8.6L66.9,56V69.4l-2.4,2.3H59.7V83.8H55.9Zm7.2,14.2V57.6l-.8-.8H59.7V68.6h2.6Z"/><path class="cls-2" d="M68.9,53.6h3.9V83.8H68.9Z"/><path class="cls-2" d="M75.4,53.6H84L86.4,56V69.4L84,71.7H79.2V83.8H75.4Zm7.2,14.2V57.6l-.8-.8H79.2V68.6h2.6Z"/><path class="cls-2" d="M88.5,53.6h9.4v3.3H92.3v10h4.9v3.2H92.3V80.6H98v3.2H88.5Z"/><path class="cls-3" d="M14,118.9,11.9,93.4,9.8,118.9H4.5L.6,88.7h4l2.3,26.1L9.6,88.7h4.7L17,114.8l2.3-26.1H23l-3.9,30.2Z"/><path class="cls-3" d="M24.7,88.7h3.8v30.2H24.7Z"/><path class="cls-3" d="M31.1,88.7h4.2l4.3,20.9V88.7h3.5v30.2H39L34.6,98.3v20.6H31.1Z"/><path class="cls-3" d="M45.7,88.7h4.2l4.4,20.9V88.7h3.4v30.2H53.6L49.2,98.3v20.6H45.7Z"/><path class="cls-3" d="M60.4,88.7h9.4v3.2H64.2V102h4.9v3.2H64.2v10.5h5.7v3.2H60.4Z"/><path class="cls-3" d="M71.9,88.7h8.8l2.4,2.4v12.5L81,105.7l2.4,13.2H79.7L77.3,106H75.7v12.9H71.9Zm7.4,13.4V92.7l-.8-.8H75.7v11h2.8Z"/><path class="cls-3" d="M92.2,92.7l-.8-.8H90l-.8.8v8.5l.8.8h3.8l2.3,2.4v12.1l-2.3,2.4H87.7l-2.4-2.4v-6.3h3.8v4.7l.8.8h1.6l.8-.8V106l-.8-.8H87.8l-2.4-2.4V91.1l2.4-2.4h5.8L96,91.1v6.3H92.2Z"/></svg>