<svg id="Layer_1" data-name="Layer 1" xmlns="http://www.w3.org/2000/svg" xmlns:xlink="http://www.w3.org/1999/xlink" viewBox="0 0 119 119"><defs><style>.cls-1{fill:none;}.cls-2{clip-path:url(#clip-path);}.cls-3{fill:#455672;}.cls-4{fill:#d8b898;}.cls-5{fill:#e9cfbb;}.cls-6{fill:#827667;}.cls-7{fill:#a89280;}.cls-8{fill:#ceb7a7;}</style><clipPath id="clip-path" transform="translate(9.5 11.2)"><circle class="cls-1" cx="50" cy="50" r="50"/></clipPath></defs><title>male</title><g class="cls-2"><g id="Young_Man_with_beard" data-name="Young Man with beard"><rect class="cls-3" width="119" height="119.05"/><path class="cls-4" d="M50.2,62.8v7.3s4.7,0,7.4-1.8,2.7-3.3.6-4.2-4-1.4-8-1.3Z" transform="translate(9.5 11.2)"/><path class="cls-4" d="M72.2,48.3a2.2,2.2,0,0,0-1.8-.7A35.8,35.8,0,0,1,69.1,55s-2.4-14.3-5.2-16.9-2.2-2.7-3-3.5a9.2,9.2,0,0,1,.2,2.5,5,5,0,0,0-2.9-2.8,7,7,0,0,1-.3,2,2.6,2.6,0,0,0-.9-1.7c-1.6,1.1-3.5,2.9-6.8,3.6v21s9.6.2,12,2.7,5.9-.8,6.9-6.8a37.5,37.5,0,0,1-.9,7.7C72.1,60.5,73.3,53.2,72.2,48.3Z" transform="translate(9.5 11.2)"/><path class="cls-5" d="M42.2,64.1c-2,.9-1.3,3,.7,4.2s7.3,1.8,7.3,1.8h0V62.8A17.3,17.3,0,0,0,42.2,64.1Z" transform="translate(9.5 11.2)"/><path class="cls-5" d="M30.4,48.1c-.7-.7-1.7-.8-2.8.2-1.2,5.2.3,13.3,4.8,14.8a42.1,42.1,0,0,1-1-8C31.3,54.1,30.8,51.4,30.4,48.1Z" transform="translate(9.5 11.2)"/><path class="cls-5" d="M35,40.3c-2.5,4.7-2.3,8-3.6,15.1,1.1,5.8,4.9,8.6,6.9,6.5s11.9-2.7,11.9-2.7h0v-21l-1.7.3C43,38.8,37.8,35,35,40.3Z" transform="translate(9.5 11.2)"/><path class="cls-6" d="M31.4,55.1c0,.1.1.2.1.3,1.3-7.1,1.1-10.4,3.6-15.1s8-1.4,13.5-1.8l1.7-.2c3.3-.7,5.2-2.6,6.8-3.7a2.6,2.6,0,0,1,.9,1.8,8.3,8.3,0,0,0,.3-2.1c1.3.7,2.5,1.5,2.9,2.8a8.5,8.5,0,0,0-.2-2.4c.8.8,1.5,2.1,3,3.5s5.2,16.9,5.2,16.9a36.8,36.8,0,0,0,1.3-7.5,67.7,67.7,0,0,0-.6-14.8c-.3-1.9-3-4.1-4.3-5.3s-6-5.9-11.8-6.3a5.5,5.5,0,0,1-3.3-2.4s.1.7.3,1.7c-2.2-1.1-4.7-2.7-5.3-5a11.7,11.7,0,0,0,.8,6,4.8,4.8,0,0,1-2.2-2.7,8.5,8.5,0,0,0,.6,4.5,4.3,4.3,0,0,1-2.1-1.1,7.2,7.2,0,0,0,.9,1.6c-5.1,2.4-9.9,5.9-12.7,10.5-1.4,2.2-1,8.6-.3,13.8a64.9,64.9,0,0,0,1,7Z" transform="translate(9.5 11.2)"/><path class="cls-7" d="M62.2,61.9c-2.4-2.5-12-2.7-12-2.7h0v3.6a18.4,18.4,0,0,1,8,1.2c2.1,1,1.3,3-.6,4.3S50.2,70,50.2,70h0V81.3c12.1-1.9,16.4-11.5,18-18.6a36.3,36.3,0,0,0,.9-7.7C68.1,61.1,64.2,64,62.2,61.9Z" transform="translate(9.5 11.2)"/><path class="cls-8" d="M50.2,70.1h0s-4.6,0-7.3-1.8-2.7-3.3-.6-4.2,4-1.3,7.9-1.2h0V59.3h0s-9.5.2-11.9,2.7-5.7-.7-6.8-6.5a.4.4,0,0,0-.1-.3h0a53.7,53.7,0,0,0,1,8c1.7,7,6.1,16.2,17.8,18.1h0Z" transform="translate(9.5 11.2)"/></g></g></svg>